<svg width="208" height="64" viewBox="0 0 208 64" fill="none" xmlns="http://www.w3.org/2000/svg">
<path fill-rule="evenodd" clip-rule="evenodd" d="M34.2297 0.206212C32.198 0.476787 29.1248 1.36066 27.0827 2.26119C25.0007 3.17948 23.4437 4.17658 19.1302 7.35355C12.6381 12.1348 8.36095 13.9489 2.81966 14.2717L0 14.4359L0.144807 17.3762C0.5671 25.9422 3.41671 34.0425 7.84881 39.2733C9.90606 41.7013 11.8225 43.2839 14.5508 44.8077C16.1655 45.7097 18.872 46.8186 19.4584 46.8186C19.5292 46.8186 19.7183 46.3721 19.879 45.8265C20.2634 44.5205 25.8502 36.7149 27.0235 35.8446C29.8244 33.7664 33.907 34.6169 36.4053 37.7989L37.3922 39.0557L38.6507 38.7533C41.103 38.1635 44.4061 39.6183 45.9789 41.9807L46.7302 43.1091L48.5867 43.0941C51.4621 43.0708 53.855 44.568 55.0315 47.1264C55.4733 48.0874 55.5558 48.1337 57.0672 48.2697C59.9304 48.5272 62.287 50.2198 63.3519 52.7832C64.4202 55.3554 64.0321 57.124 61.6877 60.3651C60.4916 62.0185 60.4433 62.1459 60.8307 62.626C61.3897 63.3181 63.2702 63.8093 64.5425 63.5953C65.8408 63.3769 67.3173 62.4609 67.976 61.4654C68.6991 60.372 68.2924 59.6247 66.0505 57.9285C65.0225 57.1509 64.1813 56.3506 64.1813 56.15C64.1813 55.5788 65.0242 54.8665 65.6995 54.8665C66.0366 54.8665 67.0203 55.4254 67.8857 56.1083C69.7971 57.6174 70.8519 58.0368 72.1504 57.8039C73.8621 57.497 74.9644 56.6806 75.5743 55.2675C76.0597 54.1435 76.0929 53.853 75.8429 52.9169C75.5573 51.8485 74.2869 50.6516 68.6369 46.1284C65.2165 43.3902 57.8353 37.1465 57.5296 36.7327C57.241 36.3425 57.242 36.2731 57.5365 36.2731C58.4304 36.2731 61.9788 38.6303 69.2558 44.0585C73.6124 47.3084 77.5982 50.1338 78.1133 50.3372C79.8663 51.0301 82.0389 50.1754 82.9952 48.4168C83.5516 47.3939 83.6429 45.5587 83.1929 44.4511C83.0048 43.9883 79.4302 40.879 73.3814 35.9174C68.1481 31.6242 63.9952 28.0635 64.1529 28.0046C64.9242 27.7163 71.2034 31.7905 80.2584 38.4541C83.968 41.184 84.1246 41.2684 85.4819 41.2684C87.1198 41.2684 88.2501 40.5679 89.0308 39.0691C89.6645 37.8527 89.6818 35.8491 89.0679 34.8004C88.6003 34.002 83.7435 29.8501 73.1428 21.187C67.3451 16.449 67.0956 16.2783 66.2119 16.4518C64.6838 16.7518 63.5491 17.6795 57.6217 23.4773C54.4639 26.5657 51.2962 29.4255 50.5088 29.8984C47.7879 31.5327 44.4425 31.8845 41.8115 30.8133C41.2493 30.5847 40.0097 30.2861 39.0566 30.1504C35.4993 29.6431 30.79 26.1164 30.3774 23.6505C30.1323 22.1866 30.8304 18.4932 31.7462 16.4077C32.7579 14.1035 35.1615 11.5706 37.1217 10.7425C38.3287 10.2327 38.922 10.1542 40.7894 10.2574C42.031 10.326 43.5103 10.591 44.1311 10.8566C44.7437 11.1186 45.3789 11.3561 45.5428 11.3844C45.7064 11.4127 47.3607 9.8223 49.2189 7.85057L52.5975 4.26511L52.0153 3.77003C51.372 3.2225 48.227 1.85158 46.1114 1.1961C42.6154 0.112968 37.8866 -0.280822 34.2297 0.206212ZM70.4935 0.0910447C64.9903 1.03237 58.4908 3.74727 55.6479 6.29178C55.107 6.77604 51.2361 10.8763 47.0461 15.4031C40.1693 22.8329 39.4279 23.7204 39.4279 24.5221C39.4279 25.6247 39.9072 26.1761 41.6518 27.0811C42.7476 27.6497 43.408 27.7915 44.9975 27.7993C46.7178 27.8076 47.1889 27.6952 48.5867 26.9412C50.1155 26.1164 50.9534 25.3469 59.1247 17.2635C63.3553 13.0784 66.8129 11.3073 70.764 11.3006C73.3225 11.2964 75.1382 11.862 77.1011 13.2743C79.8599 15.2588 82.6343 19.9168 83.3177 23.7112L83.6293 25.4415L85.9727 27.2551C91.2219 31.3181 92.5212 33.2222 92.5054 36.8282C92.499 38.3192 92.3512 39.2708 91.9846 40.1836C91.2794 41.9385 89.6043 43.6647 87.9483 44.3421L86.5832 44.9007L86.5376 46.3629L86.4918 47.8251L88.0525 47.6145C97.3021 46.366 104.492 40.2668 108.257 30.4742C109.832 26.3806 110.673 22.2407 111.096 16.5004L111.255 14.3496H109.281C103.817 14.3496 98.9668 12.4054 93.019 7.83142C85.1257 1.76112 81.6367 0.282528 74.7015 0.0702313C72.7955 0.0116762 70.9019 0.0211116 70.4935 0.0910447ZM29.2387 38.5154C28.5167 38.8282 23.3957 45.5384 22.9167 46.7995C22.5498 47.7652 22.8541 49.2044 23.6199 50.126C24.7932 51.538 27.0587 52.1774 28.4214 51.4814C28.7793 51.2985 30.3439 49.3562 31.8985 47.1649C34.8731 42.9717 35.0973 42.4031 34.4872 40.604C33.9302 38.9614 30.9482 37.7747 29.2387 38.5154ZM38.1363 42.3956C37.7286 42.662 33.8423 47.7655 32.3859 49.947C31.5304 51.2285 31.4432 52.8792 32.1732 53.9756C33.2804 55.6379 35.9758 56.4636 37.5952 55.6363C38.3185 55.2669 43.136 48.6482 43.7806 47.1386C44.5244 45.3961 43.6373 43.3841 41.7256 42.4783C40.8 42.0398 38.7532 41.9927 38.1363 42.3956ZM47.2723 46.7498C46.6012 47.095 45.5118 48.3524 43.4974 51.1078C40.7864 54.816 40.6656 55.036 40.6656 56.2737C40.6656 57.8125 41.2508 58.7863 42.6595 59.5919C43.711 60.1933 45.8279 60.3287 46.6324 59.8461C47.2069 59.5015 51.8641 53.0266 52.448 51.7608C53.8619 48.6951 50.2635 45.2115 47.2723 46.7498ZM55.4647 51.7256C54.9374 51.881 50.1271 58.2749 49.7905 59.2681C48.8654 61.9955 52.4005 64.9144 55.1921 63.7283C56.1976 63.3012 56.8504 62.5555 58.8846 59.5109C60.9792 56.3756 61.2406 55.4537 60.498 53.8219C59.703 52.0747 57.4563 51.1389 55.4647 51.7256Z" fill="#4359FC"/>
<path d="M160.336 50.4062H154.289V7.65625H160.336V50.4062ZM137.18 10.6562C139.32 10.6562 141.234 11.2813 142.922 12.5312C144.625 13.7812 145.961 15.5547 146.93 17.8516C147.898 20.1484 148.383 22.8125 148.383 25.8438C148.383 28.9062 147.898 31.5938 146.93 33.9062C145.961 36.2031 144.625 37.9766 142.922 39.2266C141.234 40.4609 139.32 41.0781 137.18 41.0781C134.992 41.0781 133.039 40.4609 131.32 39.2266C129.602 37.9766 128.258 36.2031 127.289 33.9062C126.336 31.5938 125.867 28.9062 125.883 25.8438C125.867 22.8125 126.336 20.1484 127.289 17.8516C128.258 15.5547 129.602 13.7812 131.32 12.5312C133.039 11.2813 134.992 10.6562 137.18 10.6562ZM137.18 16.0469C136.07 16.0469 135.094 16.4297 134.25 17.1953C133.422 17.9453 132.781 19.0547 132.328 20.5234C131.875 21.9922 131.648 23.7656 131.648 25.8438C131.648 27.9375 131.875 29.7188 132.328 31.1875C132.781 32.6562 133.422 33.7656 134.25 34.5156C135.094 35.2656 136.07 35.6406 137.18 35.6406C138.273 35.6406 139.227 35.2656 140.039 34.5156C140.852 33.75 141.484 32.6328 141.938 31.1641C142.391 29.6953 142.617 27.9219 142.617 25.8438C142.617 23.7812 142.391 22.0156 141.938 20.5469C141.484 19.0625 140.844 17.9453 140.016 17.1953C139.203 16.4297 138.258 16.0469 137.18 16.0469ZM185.555 8.45312C188.695 8.45312 191.43 8.78906 193.758 9.46094C196.086 10.1328 197.883 11.0938 199.148 12.3438C200.414 13.5937 201.055 15.0781 201.07 16.7969C201.055 18.5 200.414 19.9766 199.148 21.2266C197.883 22.4766 196.086 23.4297 193.758 24.0859C191.43 24.7422 188.695 25.0625 185.555 25.0469C182.43 25.0625 179.695 24.7422 177.352 24.0859C175.008 23.4141 173.195 22.4609 171.914 21.2266C170.633 19.9766 169.992 18.5 169.992 16.7969C169.992 15.0781 170.633 13.5937 171.914 12.3438C173.195 11.0938 175.008 10.1328 177.352 9.46094C179.695 8.78906 182.43 8.45312 185.555 8.45312ZM185.555 13.0938C182.555 13.0938 180.242 13.4141 178.617 14.0547C177.008 14.6797 176.211 15.5938 176.227 16.7969C176.211 17.9844 177.008 18.8828 178.617 19.4922C180.227 20.1016 182.539 20.4062 185.555 20.4062C188.539 20.4062 190.836 20.1016 192.445 19.4922C194.07 18.8828 194.883 17.9844 194.883 16.7969C194.883 15.5938 194.07 14.6797 192.445 14.0547C190.836 13.4141 188.539 13.0938 185.555 13.0938ZM200.367 49.8438H170.602V35.3125H200.367V49.8438ZM176.508 45.0625H194.508V40.0469H176.508V45.0625ZM205.008 32.3125H166.102V27.5312H205.008V32.3125Z" fill="#4359FC"/>
</svg>
