<svg preserveAspectRatio="none" width="100%" height="100%" overflow="visible" style="display: block;" viewBox="0 0 23.2374 24.4462" fill="none" xmlns="http://www.w3.org/2000/svg">
<g id="Group">
<path id="Vector" d="M10.609 24.3934C6.66445 24.0215 3.23067 21.6371 1.05499 17.7543C0.544181 16.8246 -0.0612241 15.3699 0.00499216 15.2277C0.0522895 15.1512 1.67932 14.3418 1.79283 14.3418C1.81175 14.3418 2.01986 14.8012 2.2658 15.359C3.64688 18.498 6.01175 20.7293 8.9158 21.6262C12.0658 22.5996 15.5847 21.7465 18.0915 19.4059C18.6307 18.9027 19.7091 17.6449 19.8604 17.3387C19.9266 17.2074 19.605 17.1855 17.8928 17.1855H15.859V15.9824V14.7793H19.5009H23.1428V18.9902V23.2012H22.1023H21.0618V21.3855V19.559L20.3712 20.3137C18.2428 22.6543 15.5469 24.1199 12.9266 24.3496C11.5834 24.4699 11.4604 24.4699 10.609 24.3934Z" fill="var(--fill-0, black)"/>
<path id="Vector_2" d="M21.0239 9.19753C20.5509 8.0819 19.5955 6.51784 18.9618 5.81784C16.9563 3.59753 14.3739 2.38346 11.6496 2.38346C8.72662 2.38346 6.05905 3.71784 3.99688 6.21159C3.59013 6.70378 3.28743 7.13034 3.3158 7.16315C3.33472 7.19596 4.27121 7.22878 5.37797 7.23971L7.39283 7.25065V8.45378V9.6569L3.73202 9.67878L0.0617494 9.68971V5.43503V1.18034H1.10229H2.14283V3.06159V4.94284L2.9658 4.00221C4.63067 2.1319 6.71175 0.86315 9.10499 0.239713C10.155 -0.0337246 12.2172 -0.0774746 13.4942 0.130338C15.4618 0.4694 17.7131 1.53034 19.0753 2.78815C20.409 4.01315 21.2699 5.06315 22.0455 6.43034C22.5185 7.26159 23.2374 8.8694 23.2374 9.09909C23.2374 9.23034 21.705 10.0397 21.459 10.0397C21.4212 10.0397 21.2226 9.6569 21.0239 9.19753Z" fill="var(--fill-0, black)"/>
</g>
</svg>
