<svg preserveAspectRatio="none" width="100%" height="100%" overflow="visible" style="display: block;" viewBox="0 0 80.6953 80.6953" fill="none" xmlns="http://www.w3.org/2000/svg">
<g id="icon_contents_attend 1" clip-path="url(#clip0_0_38)">
<path id="Vector" d="M40.3477 80.6953C62.6311 80.6953 80.6953 62.6311 80.6953 40.3477C80.6953 18.0643 62.6311 0 40.3477 0C18.0643 0 0 18.0643 0 40.3477C0 62.6311 18.0643 80.6953 40.3477 80.6953Z" fill="var(--fill-0, #F7F7FB)"/>
<path id="Vector_2" d="M56.4897 29.5883L34.2955 42.3014L43.71 48.081L61.1803 57.7448C62.2086 58.3136 63.4206 57.3828 63.1363 56.2425L56.4897 29.5883Z" fill="var(--fill-0, #87A3FF)"/>
<path id="Vector_3" d="M25.5289 14.8729C25.9616 13.1448 27.9241 12.3069 29.4713 13.1898L55.388 27.9772C56.4355 28.5749 56.9571 29.7967 56.6643 30.9667L47.7702 66.495C47.3375 68.2232 45.375 69.0611 43.8278 68.1782L17.9111 53.3907C16.8636 52.793 16.342 51.5711 16.6348 50.4012L25.5289 14.8729Z" fill="var(--fill-0, #B3C5FF)"/>
<path id="Vector_4" d="M28.4342 22.5485L31.4574 24.2997L30.4497 28.3803L27.4264 26.6291L28.4342 22.5485Z" fill="var(--fill-0, #F7F7FB)"/>
<path id="Vector_5" d="M33.081 25.2488L36.1043 27L35.0966 31.0806L32.0732 29.3294L33.081 25.2488Z" fill="var(--fill-0, #F7F7FB)"/>
<path id="Vector_6" d="M42.3746 30.4919L45.3979 32.2431L44.3902 36.3237L41.3669 34.5725L42.3746 30.4919Z" fill="var(--fill-0, #809EFD)"/>
<path id="Vector_7" d="M28.4333 22.1342C28.4333 22.1342 28.582 22.1507 28.6316 22.1838L31.6549 23.935C31.82 24.0341 31.9027 24.2158 31.8531 24.3976L30.8454 28.4781C30.7958 28.6929 30.5645 28.8416 30.3497 28.7756C30.3167 28.7756 30.2837 28.759 30.2341 28.726L27.2108 26.9748C27.0456 26.8757 26.963 26.6939 27.0125 26.5122L28.0203 22.4316C28.0699 22.2499 28.2351 22.1177 28.4168 22.1177L28.4333 22.1342ZM30.9775 24.4967L28.6977 23.175L27.9046 26.4131L30.1845 27.7347L30.9775 24.4967Z" fill="var(--fill-0, #F7F7FB)"/>
<path id="Vector_8" d="M33.0801 24.8293C33.0801 24.8293 33.2289 24.8458 33.2784 24.8789L36.3017 26.6301C36.4669 26.7292 36.5495 26.9109 36.4999 27.0927L35.4922 31.1733C35.4426 31.388 35.2114 31.5367 34.9966 31.4707C34.9635 31.4707 34.9305 31.4541 34.8809 31.4211L31.8576 29.6699C31.6924 29.5708 31.6098 29.3891 31.6593 29.2073L32.6672 25.1267C32.7167 24.945 32.8819 24.8128 33.0636 24.8128L33.0801 24.8293ZM35.6244 27.1918L33.3445 25.8701L32.5515 29.1082L34.8313 30.4298L35.6244 27.1918Z" fill="var(--fill-0, #F7F7FB)"/>
<path id="Vector_9" d="M42.3764 30.0829C42.3764 30.0829 42.5251 30.0994 42.5746 30.1325L45.5979 31.8837C45.7631 31.9828 45.8457 32.1645 45.7962 32.3463L44.7884 36.4269C44.7388 36.6416 44.5075 36.7903 44.2928 36.7243C44.2597 36.7243 44.2267 36.7077 44.1771 36.6747L41.1538 34.9235C40.9886 34.8244 40.906 34.6427 40.9556 34.4609L41.9634 30.3803C42.0129 30.1986 42.1781 30.0664 42.3598 30.0664L42.3764 30.0829ZM44.9206 32.4454L42.6407 31.1237L41.8477 34.3618L44.1275 35.6834L44.9206 32.4454Z" fill="var(--fill-0, #4359FC)"/>
<path id="Vector_10" d="M37.7252 27.8126L40.7485 29.5637L39.7407 33.6443L36.7174 31.8932L37.7252 27.8126Z" fill="var(--fill-0, #809EFD)"/>
<path id="Vector_11" d="M37.7269 27.3825C37.7269 27.3825 37.8756 27.399 37.9252 27.4321L40.9485 29.1833C41.1137 29.2825 41.1963 29.4642 41.1467 29.6459L40.139 33.7265C40.0894 33.9413 39.8581 34.0899 39.6433 34.0238C39.6103 34.0238 39.5773 34.0074 39.5277 33.9743L36.5044 32.2231C36.3392 32.124 36.2566 31.9422 36.3062 31.7605L37.3139 27.6799C37.3635 27.4982 37.5287 27.366 37.7104 27.366L37.7269 27.3825ZM40.2711 29.7615L37.9913 28.4399L37.1982 31.678L39.4782 32.9996L40.2711 29.7615Z" fill="var(--fill-0, #4359FC)"/>
<path id="Vector_12" d="M46.8717 33.187L49.895 34.9382L48.8873 39.0188L45.8639 37.2676L46.8717 33.187Z" fill="var(--fill-0, #809EFD)"/>
<path id="Vector_13" d="M46.8735 32.7779C46.8735 32.7779 47.0221 32.7945 47.0717 32.8275L50.095 34.5787C50.2602 34.6778 50.3428 34.8595 50.2933 35.0413L49.2854 39.1219C49.2359 39.3366 49.0046 39.4854 48.7898 39.4193C48.7568 39.4193 48.7237 39.4027 48.6742 39.3697L45.6509 37.6185C45.4857 37.5194 45.4031 37.3377 45.4527 37.1559L46.4604 33.0753C46.51 32.8936 46.6752 32.7615 46.8569 32.7615L46.8735 32.7779ZM49.4176 35.1404L47.1377 33.8188L46.3448 37.0568L48.6246 38.3785L49.4176 35.1404Z" fill="var(--fill-0, #4359FC)"/>
<path id="Vector_14" d="M25.437 33.2028L28.4603 34.954L27.4526 39.0346L24.4292 37.2834L25.437 33.2028Z" fill="var(--fill-0, #F7F7FB)"/>
<path id="Vector_15" d="M30.0838 35.9031L33.1071 37.6543L32.0994 41.735L29.0761 39.9837L30.0838 35.9031Z" fill="var(--fill-0, #809EFD)"/>
<path id="Vector_16" d="M39.3801 41.1462L42.4034 42.8974L41.3956 46.9781L38.3723 45.2268L39.3801 41.1462Z" fill="var(--fill-0, #809EFD)"/>
<path id="Vector_17" d="M25.4362 32.7884C25.4362 32.7884 25.5849 32.805 25.6344 32.838L28.6577 34.5892C28.8229 34.6883 28.9056 34.8701 28.8559 35.0518L27.8482 39.1324C27.7986 39.3472 27.5674 39.4959 27.3526 39.4298C27.3196 39.4298 27.2865 39.4133 27.2369 39.3802L24.2137 37.629C24.0484 37.5299 23.9658 37.3482 24.0154 37.1664L25.0232 33.0859C25.0727 32.9041 25.2379 32.772 25.4197 32.772L25.4362 32.7884ZM27.9804 35.1509L25.7005 33.8293L24.9075 37.0673L27.1874 38.389L27.9804 35.1509Z" fill="var(--fill-0, #F7F7FB)"/>
<path id="Vector_18" d="M30.0829 35.4836C30.0829 35.4836 30.2316 35.5001 30.2812 35.5332L33.3045 37.2843C33.4697 37.3834 33.5523 37.5652 33.5027 37.7469L32.495 41.8275C32.4454 42.0423 32.2141 42.191 31.9994 42.1249C31.9663 42.1249 31.9333 42.1084 31.8837 42.0753L28.8604 40.3242C28.6952 40.2251 28.6126 40.0433 28.6622 39.8616L29.6699 35.781C29.7195 35.5992 29.8847 35.4671 30.0664 35.4671L30.0829 35.4836ZM32.6271 37.846L30.3473 36.5244L29.5543 39.7625L31.8342 41.0841L32.6271 37.846Z" fill="var(--fill-0, #4359FC)"/>
<path id="Vector_19" d="M39.3766 40.7372C39.3766 40.7372 39.5252 40.7537 39.5748 40.7868L42.5981 42.5379C42.7633 42.637 42.8459 42.8188 42.7964 43.0005L41.7886 47.0811C41.7391 47.2959 41.5077 47.4446 41.293 47.3785C41.2599 47.3785 41.2269 47.362 41.1773 47.3289L38.154 45.5778C37.9889 45.4787 37.9062 45.2969 37.9558 45.1152L38.9635 41.0346C39.0131 40.8528 39.1783 40.7207 39.3601 40.7207L39.3766 40.7372ZM41.9207 43.0996L39.6409 41.778L38.8479 45.0161L41.1278 46.3377L41.9207 43.0996Z" fill="var(--fill-0, #4359FC)"/>
<path id="Vector_20" d="M34.7307 38.4669L37.7539 40.2181L36.7462 44.2987L33.7229 42.5475L34.7307 38.4669Z" fill="var(--fill-0, #809EFD)"/>
<path id="Vector_21" d="M34.7324 38.0368C34.7324 38.0368 34.8811 38.0533 34.9306 38.0863L37.9539 39.8376C38.1191 39.9367 38.2017 40.1184 38.1522 40.3002L37.1444 44.3808C37.0948 44.5956 36.8636 44.7442 36.6488 44.6781C36.6157 44.6781 36.5827 44.6616 36.5331 44.6286L33.5099 42.8774C33.3446 42.7782 33.2621 42.5965 33.3116 42.4148L34.3194 38.3341C34.3689 38.1524 34.5341 38.0203 34.7158 38.0203L34.7324 38.0368ZM37.2766 40.4158L34.9967 39.0942L34.2037 42.3322L36.4835 43.6539L37.2766 40.4158Z" fill="var(--fill-0, #4359FC)"/>
<path id="Vector_22" d="M43.8745 43.8413L46.8978 45.5925L45.8901 49.6732L42.8668 47.9219L43.8745 43.8413Z" fill="var(--fill-0, #809EFD)"/>
<path id="Vector_23" d="M43.8736 43.4323C43.8736 43.4323 44.0223 43.4488 44.0719 43.4819L47.0952 45.233C47.2604 45.3321 47.343 45.5139 47.2934 45.6956L46.2857 49.7762C46.2361 49.991 46.0048 50.1397 45.7901 50.0736C45.757 50.0736 45.724 50.0571 45.6744 50.024L42.6511 48.2729C42.486 48.1738 42.4033 47.992 42.4529 47.8103L43.4606 43.7297C43.5102 43.5479 43.6754 43.4158 43.8572 43.4158L43.8736 43.4323ZM46.4178 45.7947L44.138 44.4731L43.345 47.7112L45.6249 49.0328L46.4178 45.7947Z" fill="var(--fill-0, #4359FC)"/>
<path id="Vector_24" d="M23.0361 42.6382L26.0594 44.3894L25.0517 48.4701L22.0283 46.7189L23.0361 42.6382Z" fill="var(--fill-0, #F7F7FB)"/>
<path id="Vector_25" d="M27.6829 45.3386L30.7062 47.0897L29.6984 51.1704L26.6752 49.4192L27.6829 45.3386Z" fill="var(--fill-0, #809EFD)"/>
<path id="Vector_26" d="M36.9739 50.5817L39.9972 52.3328L38.9894 56.4135L35.9662 54.6622L36.9739 50.5817Z" fill="var(--fill-0, #F7F7FB)"/>
<path id="Vector_27" d="M23.0352 42.224C23.0352 42.224 23.184 42.2405 23.2335 42.2735L26.2568 44.0248C26.422 44.1239 26.5046 44.3056 26.455 44.4873L25.4473 48.5679C25.3977 48.7827 25.1665 48.9314 24.9517 48.8653C24.9187 48.8653 24.8856 48.8488 24.836 48.8158L21.8127 47.0646C21.6475 46.9654 21.5649 46.7837 21.6145 46.602L22.6223 42.5213C22.6718 42.3396 22.837 42.2074 23.0188 42.2074L23.0352 42.224ZM25.5795 44.5865L23.2996 43.2648L22.5066 46.5028L24.7865 47.8245L25.5795 44.5865Z" fill="var(--fill-0, #F7F7FB)"/>
<path id="Vector_28" d="M27.682 44.9191C27.682 44.9191 27.8307 44.9356 27.8803 44.9686L30.9036 46.7199C31.0688 46.819 31.1514 47.0007 31.1019 47.1824L30.0941 51.2631C30.0445 51.4778 29.8132 51.6265 29.5984 51.5604C29.5654 51.5604 29.5324 51.5439 29.4828 51.5109L26.4595 49.7596C26.2943 49.6605 26.2117 49.4788 26.2613 49.2971L27.269 45.2164C27.3186 45.0347 27.4838 44.9025 27.6655 44.9025L27.682 44.9191ZM30.2262 47.2816L27.9464 45.9599L27.1534 49.1979L29.4333 50.5196L30.2262 47.2816Z" fill="var(--fill-0, #4359FC)"/>
<path id="Vector_29" d="M36.9757 50.1727C36.9757 50.1727 37.1244 50.1892 37.1739 50.2222L40.1972 51.9735C40.3625 52.0726 40.445 52.2543 40.3955 52.436L39.3877 56.5167C39.3382 56.7314 39.1068 56.8801 38.8921 56.814C38.859 56.814 38.826 56.7975 38.7765 56.7645L35.7531 55.0132C35.5879 54.9141 35.5053 54.7324 35.5549 54.5507L36.5626 50.47C36.6122 50.2883 36.7774 50.1561 36.9591 50.1561L36.9757 50.1727ZM39.5199 52.5352L37.24 51.2135L36.4471 54.4515L38.7269 55.7732L39.5199 52.5352Z" fill="var(--fill-0, #F7F7FB)"/>
<path id="Vector_30" d="M32.3297 47.9023L35.353 49.6535L34.3453 53.7341L31.322 51.983L32.3297 47.9023Z" fill="var(--fill-0, #809EFD)"/>
<path id="Vector_31" d="M32.3315 47.4723C32.3315 47.4723 32.4802 47.4888 32.5297 47.5219L35.553 49.273C35.7182 49.3722 35.8009 49.5539 35.7513 49.7356L34.7435 53.8163C34.6939 54.031 34.4627 54.1797 34.2479 54.1136C34.2149 54.1136 34.1818 54.0971 34.1322 54.0641L31.109 52.3129C30.9437 52.2138 30.8612 52.032 30.9107 51.8503L31.9185 47.7697C31.968 47.588 32.1332 47.4558 32.3149 47.4558L32.3315 47.4723ZM34.8757 49.8513L32.5958 48.5296L31.8028 51.7677L34.0826 53.0894L34.8757 49.8513Z" fill="var(--fill-0, #4359FC)"/>
<path id="Vector_32" d="M41.471 53.2768L44.4943 55.0279L43.4865 59.1086L40.4632 57.3574L41.471 53.2768Z" fill="var(--fill-0, #809EFD)"/>
<path id="Vector_33" d="M41.4728 52.8677C41.4728 52.8677 41.6214 52.8842 41.671 52.9173L44.6943 54.6685C44.8595 54.7676 44.9421 54.9493 44.8926 55.1311L43.8848 59.2117C43.8352 59.4264 43.6039 59.5752 43.3892 59.5091C43.3561 59.5091 43.3231 59.4925 43.2735 59.4595L40.2502 57.7083C40.085 57.6092 40.0024 57.4275 40.052 57.2457L41.0597 53.1651C41.1093 52.9834 41.2745 52.8512 41.4562 52.8512L41.4728 52.8677ZM44.0169 55.2302L41.7371 53.9085L40.9441 57.1466L43.224 58.4682L44.0169 55.2302Z" fill="var(--fill-0, #4359FC)"/>
</g>
<defs>
<clipPath id="clip0_0_38">
<rect width="80.6953" height="80.6953" fill="white"/>
</clipPath>
</defs>
</svg>
