<svg width="22" height="17" viewBox="0 0 22 17" fill="none" xmlns="http://www.w3.org/2000/svg">
<path d="M15.7313 2.4C15.1088 2.4 14.505 2.56875 13.9763 2.87625C13.3838 2.27625 12.6938 1.77375 11.9325 1.395C12.99 0.495 14.3363 0 15.7313 0C18.9713 0 21.6 2.625 21.6 5.86875C21.6 7.425 20.9813 8.9175 19.8825 10.0163L17.2163 12.6825C16.1175 13.7813 14.625 14.4 13.0688 14.4C9.82875 14.4 7.2 11.775 7.2 8.53125C7.2 8.475 7.2 8.41875 7.20375 8.3625C7.2225 7.69875 7.77375 7.1775 8.4375 7.19625C9.10125 7.215 9.6225 7.76625 9.60375 8.43C9.60375 8.46375 9.60375 8.4975 9.60375 8.5275C9.60375 10.4438 11.1563 11.9963 13.0725 11.9963C13.9913 11.9963 14.8725 11.6325 15.525 10.98L18.1912 8.31375C18.84 7.665 19.2075 6.78 19.2075 5.86125C19.2075 3.945 17.655 2.3925 15.7388 2.3925L15.7313 2.4ZM10.32 5.29875C10.2488 5.26875 10.1775 5.2275 10.1138 5.1825C9.64125 4.93875 9.10125 4.8 8.535 4.8C7.61625 4.8 6.735 5.16375 6.0825 5.81625L3.41625 8.4825C2.7675 9.13125 2.4 10.0163 2.4 10.935C2.4 12.8513 3.9525 14.4038 5.86875 14.4038C6.4875 14.4038 7.09125 14.2388 7.62 13.9313C8.2125 14.5313 8.9025 15.0338 9.6675 15.4125C8.61 16.3088 7.2675 16.8075 5.86875 16.8075C2.62875 16.8075 0 14.1825 0 10.9388C0 9.3825 0.61875 7.89 1.7175 6.79125L4.38375 4.125C5.4825 3.02625 6.975 2.4075 8.53125 2.4075C11.7788 2.4075 14.4 5.055 14.4 8.29125C14.4 8.34 14.4 8.38875 14.4 8.4375C14.385 9.10125 13.8338 9.6225 13.17 9.6075C12.5063 9.5925 11.985 9.04125 12 8.3775C12 8.3475 12 8.32125 12 8.29125C12 7.0275 11.325 5.9175 10.32 5.30625V5.29875Z" fill="#9CA3AF"/>
</svg>
