<svg width="64" height="64" viewBox="0 0 64 64" fill="none" xmlns="http://www.w3.org/2000/svg">
<mask id="path-1-inside-1_340_1846" fill="white">
<path d="M32.75 9H31.25C30.0074 9 29 10.3431 29 12C29 13.6569 30.0074 15 31.25 15H32.75C33.9926 15 35 13.6569 35 12C35 10.3431 33.9926 9 32.75 9Z"/>
</mask>
<path d="M31.25 9V11H32.75V9V7H31.25V9ZM32.75 9V11C32.6007 11 32.618 10.9146 32.741 11.0787C32.8645 11.2433 33 11.5625 33 12H35H37C37 10.7807 36.6318 9.59981 35.941 8.67868C35.2497 7.75694 34.142 7 32.75 7V9ZM35 12H33C33 12.4375 32.8645 12.7567 32.741 12.9213C32.618 13.0854 32.6007 13 32.75 13V15V17C34.142 17 35.2497 16.2431 35.941 15.3213C36.6318 14.4002 37 13.2193 37 12H35ZM32.75 15V13H31.25V15V17H32.75V15ZM31.25 15V13C31.3993 13 31.382 13.0854 31.259 12.9213C31.1355 12.7567 31 12.4375 31 12H29H27C27 13.2193 27.3682 14.4002 28.059 15.3213C28.7503 16.2431 29.858 17 31.25 17V15ZM29 12H31C31 11.5625 31.1355 11.2433 31.259 11.0787C31.382 10.9146 31.3993 11 31.25 11V9V7C29.858 7 28.7503 7.75694 28.059 8.67868C27.3682 9.59981 27 10.7807 27 12H29Z" fill="#4338F2" mask="url(#path-1-inside-1_340_1846)"/>
<path d="M20 28C20 20.268 25.3726 14 32 14C38.6274 14 44 20.268 44 28V36L49 42H15L20 36V28Z" stroke="#4338F2" stroke-width="3.2" stroke-linejoin="round"/>
<path d="M27 44C27.8 46.5 29.6 48 32 48C34.4 48 36.2 46.5 37 44" stroke="#4338F2" stroke-width="3.2" stroke-linecap="round"/>
</svg>
