<svg width="64" height="64" viewBox="0 0 64 64" fill="none" xmlns="http://www.w3.org/2000/svg">
<path d="M31.25 10H32.75C32.986 10 33.2759 10.1251 33.541 10.4785C33.8063 10.8323 34 11.367 34 12C34 12.633 33.8063 13.1677 33.541 13.5215C33.2759 13.8749 32.986 14 32.75 14H31.25C31.014 14 30.7241 13.8749 30.459 13.5215C30.1937 13.1677 30 12.633 30 12C30 11.367 30.1937 10.8323 30.459 10.4785C30.7241 10.1251 31.014 10 31.25 10Z" stroke="#4338F2" stroke-width="2"/>
<path d="M20 28C20 20.268 25.3726 14 32 14C38.6274 14 44 20.268 44 28V36L49 42H15L20 36V28Z" stroke="#4338F2" stroke-width="3.2" stroke-linejoin="round"/>
<path d="M27 44C27.8 46.5 29.6 48 32 48C34.4 48 36.2 46.5 37 44" stroke="#4338F2" stroke-width="3.2" stroke-linecap="round"/>
<path d="M52 22C54.2091 22 56 20.2091 56 18C56 15.7909 54.2091 14 52 14C49.7909 14 48 15.7909 48 18C48 20.2091 49.7909 22 52 22Z" fill="#FF5A5A"/>
</svg>
