<svg width="44" height="44" viewBox="0 0 44 44" fill="none" xmlns="http://www.w3.org/2000/svg">
<g clip-path="url(#clip0_2499_12721)">
<g clip-path="url(#clip1_2499_12721)">
<path d="M22 43.5C33.8741 43.5 43.5 33.8741 43.5 22C43.5 10.1259 33.8741 0.5 22 0.5C10.1259 0.5 0.5 10.1259 0.5 22C0.5 33.8741 10.1259 43.5 22 43.5Z" stroke="white"/>
<path d="M22.0009 18.6641C20.2009 18.6641 18.6641 20.1904 18.6641 22.0009C18.6641 23.8114 20.1904 25.3377 22.0009 25.3377C23.8114 25.3377 25.3377 23.8114 25.3377 22.0009C25.3377 20.1904 23.8114 18.6641 22.0009 18.6641Z" fill="white"/>
<path d="M26.2737 12H17.8211C14.5474 12 12 14.5474 12 17.7263V26.1789C12 29.4526 14.5474 32 17.8211 32H26.2737C29.4526 32 32 29.4526 32 26.1789V17.7263C32 14.5474 29.4526 12 26.2737 12ZM22 27.2737C19.0947 27.2737 16.8211 24.9053 16.8211 22.0947C16.8211 19.2842 19.0947 16.8211 22 16.8211C24.9053 16.8211 27.1789 19.1895 27.1789 22C27.1789 24.8105 24.9053 27.2737 22 27.2737ZM27.3684 17.9053C26.7368 17.9053 26.1895 17.3579 26.1895 16.7263C26.1895 16.0947 26.7368 15.5474 27.3684 15.5474C28 15.5474 28.5474 16.0947 28.5474 16.7263C28.5474 17.3579 28 17.9053 27.3684 17.9053Z" fill="white"/>
</g>
</g>
<defs>
<clipPath id="clip0_2499_12721">
<rect width="44" height="44" fill="white"/>
</clipPath>
<clipPath id="clip1_2499_12721">
<rect width="44" height="44" fill="white"/>
</clipPath>
</defs>
</svg>
