<svg width="44" height="44" viewBox="0 0 44 44" fill="none" xmlns="http://www.w3.org/2000/svg">
<g clip-path="url(#clip0_2499_12707)">
<path d="M22 43.5C33.8741 43.5 43.5 33.8741 43.5 22C43.5 10.1259 33.8741 0.5 22 0.5C10.1259 0.5 0.5 10.1259 0.5 22C0.5 33.8741 10.1259 43.5 22 43.5Z" stroke="white"/>
<path fill-rule="evenodd" clip-rule="evenodd" d="M19.522 25.3208V18.129L26.0056 21.7377L19.522 25.3208ZM33.76 16.8838C33.76 16.8838 33.526 15.1192 32.806 14.3424C31.894 13.3238 30.8704 13.3186 30.4012 13.2585C27.0436 13 22.0048 13 22.0048 13H21.9952C21.9952 13 16.9576 13 13.5988 13.2585C13.1296 13.3186 12.1072 13.3225 11.194 14.3424C10.474 15.1192 10.24 16.8838 10.24 16.8838C10.24 16.8838 10 18.9544 10 21.0262V22.9674C10 25.038 10.24 27.1098 10.24 27.1098C10.24 27.1098 10.474 28.8732 11.194 29.6499C12.106 30.6698 13.306 30.6366 13.84 30.7441C15.76 30.9399 22 31 22 31C22 31 27.0436 30.9923 30.4012 30.7338C30.8704 30.6737 31.894 30.6698 32.806 29.6499C33.526 28.8732 33.76 27.1098 33.76 27.1098C33.76 27.1098 34 25.038 34 22.9674V21.0262C34 18.9544 33.76 16.8838 33.76 16.8838Z" fill="white"/>
</g>
<defs>
<clipPath id="clip0_2499_12707">
<rect width="44" height="44" fill="white"/>
</clipPath>
</defs>
</svg>
