<svg width="30" height="33" viewBox="0 0 30 33" fill="none" xmlns="http://www.w3.org/2000/svg">
<path d="M9.07031 4.26316C9.07031 2.46842 10.565 1 12.3919 1C14.2188 1 15.7135 2.46842 15.7135 4.26316V15.6842" stroke="white" stroke-width="2" stroke-linecap="round"/>
<path d="M15.7129 5.89988C15.7129 4.10514 17.2076 2.63672 19.0345 2.63672C20.8614 2.63672 22.3561 4.10514 22.3561 5.89988V15.6894" stroke="white" stroke-width="2" stroke-linecap="round"/>
<path d="M22.3568 8.34211C22.3568 6.54737 23.8515 5.07895 25.6784 5.07895C27.5053 5.07895 29 6.54737 29 8.34211V18.9474C29 26.1263 23.0211 32 15.7136 32C12.0599 32 8.73828 30.5316 6.41316 28.0842L1.76293 22.5368C0.600371 21.0684 0.766451 18.9474 2.26117 17.8053C3.75589 16.6632 5.91492 16.8263 7.07748 18.2947L9.07044 20.9053V4.26316C9.07044 2.46842 10.5652 1 12.392 1" stroke="white" stroke-width="2" stroke-linecap="round" stroke-linejoin="round"/>
</svg>
